<svg width="192" height="22" viewBox="0 0 192 22" fill="none" xmlns="http://www.w3.org/2000/svg">
    <path d="M112.46 7.15268L106.354 0.11586L109.859 16.4148L122.641 0L112.46 7.15268Z" fill="#FF0016"></path>
    <path d="M177.553 12.0754C178.253 9.67199 178.221 7.65833 177.3 6.16747C176.428 4.67182 174.756 3.86846 172.307 3.86846C170.26 3.88563 168.274 4.56168 166.644 5.79595C164.864 7.10175 163.578 8.96795 162.993 11.093C162.407 13.2062 162.599 14.7478 163.76 16.0539C164.921 17.3599 166.303 17.8396 168.422 17.8396C169.282 17.8463 170.14 17.7602 170.982 17.584C171.692 17.4308 172.385 17.2106 173.055 16.9271C174.593 16.2693 175.829 15.1404 176.782 13.5002H171.867C171.035 14.5975 170.08 14.631 169.64 14.631C168.913 14.631 168.401 14.4203 168.072 13.9416C167.707 13.4264 167.63 12.8433 167.861 12.0754H177.553ZM170.984 7.15372C173.351 6.76401 173.432 8.79299 173.253 9.45081H168.617C168.948 8.17156 169.785 7.40171 170.991 7.15276L170.984 7.15372ZM136.733 9.37229C137.157 7.56928 138.204 5.25016 135.25 4.29935C134.402 4.02645 133.243 3.86176 131.671 3.86176C130.641 3.85605 129.613 3.95584 128.604 4.15955C127.665 4.31433 126.754 4.60869 125.902 5.03281C125.274 5.38277 124.724 5.85733 124.287 6.42727C123.849 6.99721 123.533 7.65046 123.358 8.34679H128.393C129.086 7.00243 130.221 6.99668 130.588 6.99668C130.951 7.00147 131.31 7.07328 131.647 7.20734C132.156 7.39597 132.645 8.85619 130.23 9.22483C127.534 9.63465 125.144 9.75721 123.408 10.7885C122.866 11.1038 122.384 11.5115 121.984 11.993C121.499 12.5592 121.152 13.2293 120.969 13.9512C120.602 15.2189 120.827 16.2061 121.581 16.8678C122.244 17.5572 123.23 17.8483 124.435 17.8483C125.43 17.8483 126.296 17.7764 127.099 17.4844C127.626 17.3159 128.129 17.0817 128.596 16.7873C128.965 16.5767 129.323 16.3497 129.727 16.0625L129.586 17.4844H135.169L135.206 17.2632C135.092 17.1545 135.004 17.0227 134.946 16.8768C134.889 16.7309 134.864 16.5743 134.873 16.4177C134.861 16.1317 134.898 15.8457 134.983 15.5722C134.983 15.5722 136.505 10.3595 136.733 9.36559V9.37229ZM129.952 14.0038C129.579 14.3853 129.113 14.6626 128.6 14.8081C128.304 14.8802 128 14.9165 127.695 14.9163C126.562 14.9163 126.08 14.5486 126.264 13.8602C126.636 12.061 129.848 12.4459 131.018 11.7039C130.874 12.5508 130.509 13.3449 129.958 14.0057L129.952 14.0038ZM56.0699 3.91251C55.1107 3.92705 54.1678 4.16233 53.3147 4.60001C52.9019 4.81066 52.518 5.07398 52.1723 5.38422C52.012 5.52976 51.4101 6.12342 51.2911 6.24407C51.4783 5.57381 51.6635 4.90354 51.8479 4.23136H47.2783L42.2767 22.0001H47.4261L49.0677 16.1276C49.7378 17.6501 51.2949 17.9919 52.8213 17.7918C54.5763 17.5284 56.1986 16.7054 57.4456 15.4458C58.7167 14.1771 59.5221 12.6087 60.0818 10.9216C60.6117 9.32824 60.6981 7.36437 59.9253 5.82946C59.19 4.37403 57.6069 3.91251 56.0699 3.91251ZM52.6034 13.752C52.0667 13.9081 51.3122 13.9626 50.8418 13.6045C50.4712 13.3173 50.2936 12.737 50.2447 12.2918C50.1103 11.07 50.668 9.57145 51.5503 8.6982C52.277 7.97335 53.5336 7.35192 54.5167 7.98772C55.4344 8.58138 55.1839 10.0569 54.9727 10.8603C54.7605 11.6636 53.9128 13.3651 52.6015 13.7434L52.6034 13.752ZM73.7483 4.07912C72.0631 3.74006 70.3218 3.79677 68.6623 4.24477C65.573 5.11707 63.2143 7.6095 62.2773 10.6573C61.8165 12.1625 61.6418 13.8918 62.3733 15.3415C62.6392 15.8813 63.0156 16.3594 63.4783 16.745C63.9409 17.1306 64.4796 17.4151 65.0594 17.5802C65.789 17.7879 66.5416 17.8981 67.3 17.9076C68.1803 17.9526 69.0626 17.8894 69.9276 17.72C71.4778 17.3688 72.9143 16.6338 74.1045 15.5828C75.427 14.4165 76.4108 12.917 76.9528 11.2414C77.7055 9.02567 77.9147 4.91886 73.7483 4.07912ZM69.989 14.1369C68.9743 14.7239 67.3509 14.6798 66.9899 13.346C66.6443 12.0782 67.1109 10.5347 67.7128 9.40389C68.3848 8.13613 69.5042 7.11254 71.0488 7.32607C73.5727 7.67461 72.2335 12.8366 69.989 14.1369ZM101.364 17.944H107.929L105.161 4.66895L101.364 17.944ZM111.146 17.944H117.497L121.297 4.66895L111.146 17.944ZM100.13 5.61019L101.298 1.73511H95.8072L94.6245 5.61115H92.9666L91.733 9.64614H93.3967L90.8604 17.945H96.3554L98.8936 9.64614H101.108L102.335 5.61115L100.13 5.61019ZM160.487 5.61019L161.672 1.73511H156.177L154.99 5.61019H153.331L152.103 9.64518H153.76L151.229 17.944H156.73L159.257 9.64518H161.477L162.7 5.61019H160.487ZM186.84 6.674L187.551 4.38169H181.87L177.858 17.5438H183.736C184.261 15.8231 184.776 14.1005 185.308 12.3846C185.731 10.9982 186.592 9.6155 187.961 8.98545C188.7 8.64553 189.766 8.5019 190.505 8.95194L192 3.97571C190.474 3.95655 188.98 4.65842 187.867 5.66669C187.516 5.98841 187.181 6.33312 186.84 6.66634V6.674ZM86.9896 5.67339C86.6373 5.99416 86.3023 6.33887 85.9615 6.67304C86.1986 5.91085 86.4357 5.14675 86.6719 4.38169H80.9915L76.9807 17.5438H82.8463C83.3695 15.8231 83.8869 14.1005 84.4187 12.3846C84.8421 10.9982 85.7032 9.6155 87.0703 8.98545C87.8114 8.64553 88.8751 8.5019 89.6133 8.95194L91.1263 3.97571C89.5999 3.95655 88.1061 4.65842 86.9935 5.66669L86.9896 5.67339ZM41.7218 10.5184C40.901 9.84626 39.8412 9.61358 38.8456 9.34261C38.3724 9.21621 37.6984 9.03237 37.6283 8.45211C37.5631 7.9092 37.9682 7.45055 38.4491 7.26958C39.3919 6.91625 40.446 7.19968 41.2994 7.65354C41.4348 7.72536 41.7381 7.90537 41.7381 7.90537L42.2181 7.27149L43.5842 5.47231L43.8722 5.09217L43.806 5.04813C42.2988 4.0073 40.3432 3.73632 38.5528 3.87708C36.7624 4.01592 34.924 4.78768 33.774 6.20194C32.7141 7.49747 31.7695 9.77828 33.0578 11.2289C33.6578 11.9021 34.5554 12.2171 35.3887 12.4775C36.1375 12.7102 37.5458 12.8998 37.4104 13.9569C37.2808 14.9652 36.1394 15.1174 35.3061 15.014C34.4666 14.868 33.6889 14.4783 33.0703 13.8937C32.9187 13.779 32.7771 13.6519 32.6469 13.5136L30.0396 16.3727C30.815 17.087 31.714 17.6548 32.693 18.0484C33.6755 18.4026 34.7229 18.5414 35.764 18.4553C37.7992 18.3261 39.8459 17.5945 41.2226 16.0433C42.4514 14.6588 43.4402 11.9088 41.7218 10.5184ZM145.715 3.53237C143.928 3.69324 142.086 4.44298 140.934 5.85723C139.874 7.15276 138.931 9.43166 140.222 10.8813C140.82 11.5554 141.718 11.8733 142.553 12.1328C143.301 12.3655 144.711 12.556 144.574 13.6122C144.446 14.6233 143.303 14.7727 142.472 14.6693C141.641 14.5659 140.673 14.0057 139.817 13.166L137.204 16.0309C137.979 16.7449 138.877 17.3121 139.855 17.7046C140.837 18.0601 141.885 18.1993 142.926 18.1125C144.96 17.9814 147.007 17.2527 148.385 15.7005C149.613 14.316 150.602 11.566 148.884 10.1737C148.056 9.50347 147.012 9.27079 146.008 9.00077C145.534 8.87342 144.86 8.68766 144.79 8.11028C144.723 7.56449 145.13 7.1068 145.611 6.92678C146.556 6.5725 147.608 6.85497 148.461 7.30979C148.597 7.38352 148.9 7.56258 148.9 7.56258L151.034 4.74747C151.013 4.7331 149.181 3.22118 145.715 3.53142" fill="white"></path>
    <path d="M25.5641 4.17871L17.79 13.0042L0.503906 4.24478L16.8517 7.69856L25.5641 4.17871Z" fill="#FF0016"></path>
    <path d="M2.08301 21.5557L11.1804 11.2193L31.4425 21.4629L12.3017 17.4413L2.08301 21.5557ZM16.3041 0.976718C15.9452 1.00507 15.5954 1.1044 15.2752 1.26894C14.9549 1.43348 14.6705 1.65996 14.4385 1.93524C14.2064 2.21052 14.0313 2.52914 13.9233 2.8726C13.8153 3.21607 13.7766 3.57757 13.8093 3.93612C13.8421 4.29468 13.9457 4.64316 14.1142 4.96137C14.2826 5.27958 14.5126 5.56118 14.7907 5.78984C15.0688 6.01851 15.3895 6.18969 15.7343 6.29346C16.0791 6.39723 16.441 6.43153 16.7991 6.39437C17.511 6.32049 18.1651 5.96907 18.6196 5.41625C19.0741 4.86343 19.2925 4.15376 19.2274 3.44105C19.1623 2.72833 18.8189 2.06999 18.2717 1.6087C17.7245 1.14742 17.0176 0.920352 16.3041 0.976718Z" fill="white"></path>
</svg>
