<svg width="690" height="407" viewBox="0 0 690 407" fill="none" xmlns="http://www.w3.org/2000/svg">
    <g clip-path="url(#clip0_0_5176)">
        <rect width="690" height="406.676" rx="19.2737" fill="#1551E5"/>
        <circle opacity="0.9" cx="593.632" cy="308.38" r="181.173" fill="#FD5145"/>
        <rect x="48" y="220" width="343.073" height="132.989" rx="19.2737" fill="#FD5145"/>
        <path d="M103.833 292.444C101.38 292.444 99.2011 292 97.2956 291.113C95.3902 290.226 93.8844 289.005 92.7783 287.45C91.6832 285.895 91.1138 284.11 91.07 282.095H98.9547C99.0204 283.332 99.5242 284.329 100.466 285.084C101.408 285.829 102.53 286.201 103.833 286.201C104.852 286.201 105.755 285.977 106.544 285.528C107.332 285.079 107.951 284.449 108.4 283.639C108.849 282.818 109.068 281.876 109.057 280.814C109.068 279.729 108.843 278.782 108.384 277.972C107.935 277.161 107.31 276.532 106.511 276.083C105.722 275.623 104.813 275.393 103.784 275.393C102.809 275.382 101.884 275.595 101.008 276.033C100.143 276.472 99.4858 277.068 99.0368 277.824L91.8585 276.477L93.3204 258.342H114.905V264.896H100.006L99.234 272.83H99.4311C99.9896 271.899 100.888 271.133 102.125 270.531C103.373 269.917 104.792 269.611 106.379 269.611C108.394 269.611 110.19 270.082 111.767 271.023C113.355 271.954 114.604 273.246 115.513 274.9C116.432 276.554 116.892 278.448 116.892 280.584C116.892 282.894 116.345 284.942 115.25 286.727C114.166 288.512 112.643 289.914 110.683 290.932C108.734 291.94 106.451 292.444 103.833 292.444ZM140.198 285.676V283.902C140.198 282.522 140.493 281.246 141.085 280.074C141.687 278.903 142.557 277.961 143.696 277.249C144.835 276.537 146.226 276.181 147.869 276.181C149.544 276.181 150.951 276.537 152.09 277.249C153.24 277.95 154.105 278.886 154.686 280.058C155.277 281.219 155.573 282.5 155.573 283.902V285.676C155.573 287.056 155.277 288.331 154.686 289.503C154.094 290.675 153.224 291.617 152.074 292.329C150.924 293.04 149.522 293.396 147.869 293.396C146.204 293.396 144.802 293.04 143.663 292.329C142.525 291.617 141.659 290.675 141.068 289.503C140.488 288.331 140.198 287.056 140.198 285.676ZM145.438 283.902V285.676C145.438 286.377 145.607 287.05 145.947 287.696C146.297 288.342 146.938 288.665 147.869 288.665C148.821 288.665 149.462 288.353 149.791 287.729C150.119 287.094 150.283 286.41 150.283 285.676V283.902C150.283 283.168 150.125 282.478 149.807 281.832C149.5 281.175 148.854 280.846 147.869 280.846C146.949 280.846 146.314 281.175 145.963 281.832C145.613 282.478 145.438 283.168 145.438 283.902ZM122.753 266.424V264.65C122.753 263.248 123.054 261.967 123.656 260.806C124.269 259.634 125.145 258.698 126.284 257.997C127.423 257.285 128.803 256.929 130.424 256.929C132.099 256.929 133.506 257.285 134.645 257.997C135.795 258.698 136.666 259.634 137.257 260.806C137.849 261.967 138.144 263.248 138.144 264.65V266.424C138.144 267.826 137.843 269.107 137.241 270.268C136.649 271.429 135.779 272.354 134.629 273.044C133.479 273.734 132.077 274.079 130.424 274.079C128.77 274.079 127.368 273.728 126.219 273.027C125.08 272.327 124.215 271.396 123.623 270.235C123.043 269.074 122.753 267.804 122.753 266.424ZM128.042 264.65V266.424C128.042 267.158 128.212 267.842 128.551 268.477C128.902 269.102 129.526 269.414 130.424 269.414C131.387 269.414 132.028 269.102 132.346 268.477C132.674 267.842 132.838 267.158 132.838 266.424V264.65C132.838 263.916 132.685 263.226 132.379 262.58C132.072 261.923 131.42 261.595 130.424 261.595C129.504 261.595 128.874 261.929 128.535 262.597C128.206 263.265 128.042 263.949 128.042 264.65ZM125.233 291.984L148.361 258.342H152.846L129.717 291.984H125.233ZM202.372 270.531H194.159C194.049 269.687 193.825 268.926 193.485 268.247C193.146 267.568 192.697 266.988 192.138 266.506C191.58 266.024 190.917 265.657 190.15 265.406C189.395 265.143 188.557 265.011 187.637 265.011C186.006 265.011 184.598 265.411 183.416 266.21C182.244 267.01 181.34 268.165 180.705 269.676C180.081 271.188 179.769 273.016 179.769 275.163C179.769 277.397 180.086 279.27 180.722 280.781C181.368 282.281 182.271 283.414 183.432 284.181C184.604 284.937 185.989 285.314 187.588 285.314C188.486 285.314 189.302 285.199 190.035 284.97C190.78 284.74 191.432 284.406 191.99 283.967C192.56 283.518 193.025 282.976 193.386 282.341C193.759 281.695 194.016 280.967 194.159 280.157L202.372 280.206C202.229 281.695 201.797 283.163 201.074 284.608C200.362 286.054 199.382 287.373 198.134 288.567C196.885 289.75 195.363 290.691 193.567 291.392C191.782 292.093 189.734 292.444 187.424 292.444C184.379 292.444 181.652 291.776 179.243 290.44C176.845 289.093 174.95 287.132 173.56 284.559C172.169 281.985 171.474 278.853 171.474 275.163C171.474 271.461 172.18 268.324 173.593 265.751C175.005 263.177 176.916 261.222 179.325 259.886C181.735 258.55 184.434 257.882 187.424 257.882C189.461 257.882 191.344 258.167 193.074 258.736C194.805 259.295 196.327 260.116 197.641 261.2C198.955 262.274 200.023 263.593 200.844 265.159C201.665 266.725 202.175 268.516 202.372 270.531ZM207.025 291.984V266.753H215.057V276.148H216.831L222.958 266.753H232.256L223.763 279.384L232.338 291.984H222.925L217.39 283.606H215.057V291.984H207.025ZM242.456 281.586L250.522 266.753H258.242V291.984H250.637V277.101L242.588 291.984H234.851V266.753H242.456V281.586ZM261.614 299.425V285.791H263.503C264.072 285.506 264.527 284.959 264.866 284.148C265.206 283.327 265.474 282.369 265.671 281.274C265.879 280.167 266.033 279.018 266.131 277.824C266.241 276.619 266.339 275.486 266.427 274.424L267.018 266.753H287.453V285.791H291.395V299.425H283.773V291.984H269.433V299.425H261.614ZM271.322 285.791H279.962V272.732H273.72L273.589 274.424C273.435 277.14 273.195 279.417 272.866 281.257C272.538 283.097 272.023 284.608 271.322 285.791ZM295.112 291.984V266.753H303.144V276.148H304.918L311.045 266.753H320.343L311.85 279.384L320.425 291.984H311.012L305.477 283.606H303.144V291.984H295.112ZM330.051 292.411C328.441 292.411 327.012 292.142 325.763 291.606C324.526 291.058 323.546 290.237 322.823 289.142C322.111 288.036 321.755 286.65 321.755 284.986C321.755 283.584 322.002 282.401 322.495 281.438C322.987 280.474 323.666 279.691 324.531 279.089C325.397 278.487 326.393 278.032 327.521 277.725C328.649 277.408 329.854 277.194 331.135 277.085C332.569 276.953 333.725 276.816 334.601 276.674C335.477 276.521 336.112 276.307 336.506 276.033C336.912 275.749 337.114 275.349 337.114 274.834V274.752C337.114 273.909 336.824 273.257 336.244 272.797C335.663 272.338 334.88 272.108 333.895 272.108C332.832 272.108 331.978 272.338 331.332 272.797C330.686 273.257 330.275 273.893 330.1 274.703L322.692 274.44C322.911 272.907 323.475 271.538 324.384 270.334C325.303 269.118 326.563 268.165 328.162 267.475C329.771 266.774 331.704 266.424 333.96 266.424C335.57 266.424 337.054 266.616 338.412 266.999C339.77 267.371 340.952 267.919 341.96 268.642C342.967 269.353 343.745 270.229 344.292 271.27C344.851 272.31 345.13 273.498 345.13 274.834V291.984H337.574V288.468H337.377C336.928 289.323 336.353 290.045 335.652 290.637C334.962 291.228 334.146 291.672 333.205 291.967C332.274 292.263 331.222 292.411 330.051 292.411ZM332.531 287.154C333.396 287.154 334.174 286.979 334.864 286.629C335.565 286.278 336.123 285.796 336.539 285.183C336.955 284.559 337.163 283.836 337.163 283.015V280.616C336.933 280.737 336.654 280.846 336.326 280.945C336.008 281.044 335.658 281.137 335.274 281.224C334.891 281.312 334.497 281.389 334.092 281.454C333.686 281.52 333.298 281.58 332.925 281.635C332.17 281.755 331.524 281.942 330.987 282.193C330.461 282.445 330.056 282.774 329.771 283.179C329.498 283.573 329.361 284.044 329.361 284.592C329.361 285.424 329.656 286.059 330.248 286.497C330.85 286.935 331.611 287.154 332.531 287.154Z" fill="white"/>
        <path d="M90.3965 319.168V305.501H101.145V319.168H99.0451V307.459H92.4964V319.168H90.3965ZM104.98 324.293V305.501H107.008V307.672H107.258C107.412 307.435 107.625 307.132 107.898 306.765C108.177 306.391 108.574 306.059 109.091 305.768C109.613 305.471 110.318 305.323 111.208 305.323C112.359 305.323 113.373 305.611 114.251 306.186C115.129 306.762 115.814 307.577 116.307 308.633C116.799 309.689 117.045 310.935 117.045 312.37C117.045 313.817 116.799 315.072 116.307 316.134C115.814 317.19 115.132 318.008 114.26 318.59C113.388 319.165 112.383 319.453 111.244 319.453C110.366 319.453 109.663 319.307 109.135 319.017C108.607 318.72 108.201 318.385 107.916 318.011C107.631 317.632 107.412 317.317 107.258 317.068H107.08V324.293H104.98ZM107.044 312.334C107.044 313.367 107.195 314.277 107.498 315.066C107.8 315.849 108.242 316.463 108.824 316.908C109.405 317.347 110.117 317.566 110.959 317.566C111.837 317.566 112.57 317.335 113.157 316.872C113.75 316.404 114.195 315.775 114.491 314.986C114.794 314.191 114.945 313.307 114.945 312.334C114.945 311.374 114.797 310.507 114.5 309.736C114.21 308.959 113.768 308.345 113.175 307.895C112.587 307.438 111.849 307.209 110.959 307.209C110.105 307.209 109.387 307.426 108.806 307.859C108.224 308.286 107.786 308.885 107.489 309.656C107.192 310.421 107.044 311.314 107.044 312.334ZM122.348 316.072L128.932 305.501H131.353V319.168H129.253V308.597L122.704 319.168H120.248V305.501H122.348V316.072ZM142.246 319.168V305.501H152.994V319.168H150.894V307.459H144.345V319.168H142.246ZM162.381 319.453C161.147 319.453 160.065 319.159 159.133 318.572C158.208 317.985 157.484 317.163 156.962 316.107C156.446 315.051 156.188 313.817 156.188 312.406C156.188 310.982 156.446 309.739 156.962 308.678C157.484 307.616 158.208 306.791 159.133 306.204C160.065 305.617 161.147 305.323 162.381 305.323C163.615 305.323 164.694 305.617 165.62 306.204C166.551 306.791 167.275 307.616 167.791 308.678C168.313 309.739 168.574 310.982 168.574 312.406C168.574 313.817 168.313 315.051 167.791 316.107C167.275 317.163 166.551 317.985 165.62 318.572C164.694 319.159 163.615 319.453 162.381 319.453ZM162.381 317.566C163.318 317.566 164.089 317.326 164.694 316.846C165.299 316.365 165.747 315.733 166.038 314.95C166.329 314.167 166.474 313.319 166.474 312.406C166.474 311.492 166.329 310.641 166.038 309.852C165.747 309.063 165.299 308.425 164.694 307.939C164.089 307.453 163.318 307.209 162.381 307.209C161.444 307.209 160.673 307.453 160.068 307.939C159.463 308.425 159.015 309.063 158.724 309.852C158.433 310.641 158.288 311.492 158.288 312.406C158.288 313.319 158.433 314.167 158.724 314.95C159.015 315.733 159.463 316.365 160.068 316.846C160.673 317.326 161.444 317.566 162.381 317.566ZM171.779 319.168V305.501H173.879V311.445H175.267L180.179 305.501H182.883L177.367 312.085L182.955 319.168H180.25L175.765 313.402H173.879V319.168H171.779ZM186.589 324.293C186.233 324.293 185.916 324.263 185.637 324.204C185.358 324.151 185.166 324.097 185.059 324.044L185.593 322.193C186.103 322.324 186.554 322.371 186.945 322.335C187.337 322.3 187.684 322.125 187.986 321.811C188.295 321.502 188.576 321.001 188.832 320.307L189.223 319.239L184.169 305.501H186.447L190.22 316.392H190.362L194.135 305.501H196.412L190.611 321.161C190.35 321.867 190.027 322.451 189.641 322.914C189.256 323.382 188.808 323.729 188.298 323.955C187.793 324.18 187.224 324.293 186.589 324.293ZM199.184 319.168V305.501H209.932V319.168H207.833V307.459H201.284V319.168H199.184ZM213.767 319.168V305.501H215.867V311.445H217.255L222.167 305.501H224.872L219.355 312.085L224.943 319.168H222.238L217.753 313.402H215.867V319.168H213.767ZM232.392 319.453C231.075 319.453 229.94 319.162 228.985 318.581C228.035 317.993 227.303 317.175 226.787 316.125C226.277 315.069 226.022 313.841 226.022 312.441C226.022 311.041 226.277 309.808 226.787 308.74C227.303 307.666 228.021 306.83 228.94 306.231C229.865 305.626 230.945 305.323 232.179 305.323C232.891 305.323 233.594 305.442 234.288 305.679C234.982 305.916 235.613 306.302 236.183 306.836C236.752 307.364 237.206 308.064 237.544 308.936C237.882 309.808 238.051 310.881 238.051 312.157V313.046H227.516V311.231H235.916C235.916 310.46 235.762 309.772 235.453 309.167C235.151 308.562 234.718 308.084 234.154 307.734C233.596 307.384 232.938 307.209 232.179 307.209C231.342 307.209 230.619 307.417 230.008 307.832C229.403 308.242 228.937 308.775 228.611 309.434C228.285 310.092 228.121 310.798 228.121 311.551V312.762C228.121 313.794 228.299 314.669 228.655 315.386C229.017 316.098 229.518 316.641 230.159 317.015C230.8 317.382 231.544 317.566 232.392 317.566C232.944 317.566 233.442 317.489 233.887 317.335C234.338 317.175 234.727 316.938 235.053 316.623C235.379 316.303 235.631 315.905 235.809 315.431L237.838 316C237.624 316.688 237.265 317.293 236.761 317.815C236.257 318.332 235.634 318.735 234.893 319.026C234.151 319.31 233.318 319.453 232.392 319.453ZM257.439 311.374V313.331H249.894V311.374H257.439ZM250.392 305.501V319.168H248.293V305.501H250.392ZM259.041 305.501V319.168H256.941V305.501H259.041ZM266.898 319.488C266.032 319.488 265.246 319.325 264.54 318.999C263.834 318.667 263.273 318.189 262.858 317.566C262.443 316.938 262.235 316.178 262.235 315.289C262.235 314.506 262.389 313.871 262.698 313.384C263.006 312.892 263.419 312.507 263.935 312.228C264.451 311.949 265.02 311.741 265.643 311.605C266.272 311.463 266.903 311.35 267.538 311.267C268.369 311.16 269.042 311.08 269.558 311.027C270.08 310.967 270.46 310.869 270.697 310.733C270.94 310.596 271.062 310.359 271.062 310.021V309.95C271.062 309.072 270.821 308.39 270.341 307.903C269.866 307.417 269.146 307.174 268.179 307.174C267.176 307.174 266.39 307.393 265.821 307.832C265.251 308.271 264.851 308.74 264.62 309.238L262.627 308.526C262.983 307.696 263.457 307.049 264.05 306.587C264.649 306.118 265.302 305.792 266.008 305.608C266.72 305.418 267.42 305.323 268.108 305.323C268.547 305.323 269.051 305.377 269.62 305.483C270.196 305.584 270.75 305.795 271.284 306.115C271.824 306.435 272.272 306.919 272.628 307.565C272.984 308.212 273.162 309.078 273.162 310.163V319.168H271.062V317.317H270.955C270.813 317.614 270.575 317.931 270.243 318.269C269.911 318.607 269.469 318.895 268.917 319.132C268.366 319.37 267.692 319.488 266.898 319.488ZM267.218 317.602C268.048 317.602 268.748 317.439 269.318 317.113C269.893 316.786 270.326 316.365 270.617 315.849C270.913 315.333 271.062 314.79 271.062 314.221V312.299C270.973 312.406 270.777 312.504 270.474 312.593C270.178 312.676 269.834 312.75 269.442 312.815C269.057 312.874 268.68 312.928 268.312 312.975C267.95 313.017 267.657 313.052 267.431 313.082C266.886 313.153 266.376 313.269 265.901 313.429C265.432 313.583 265.053 313.817 264.762 314.132C264.477 314.44 264.335 314.861 264.335 315.395C264.335 316.125 264.605 316.677 265.145 317.05C265.69 317.418 266.381 317.602 267.218 317.602ZM289.593 319.453C288.312 319.453 287.209 319.15 286.283 318.545C285.358 317.94 284.646 317.107 284.148 316.045C283.65 314.983 283.401 313.77 283.401 312.406C283.401 311.018 283.656 309.793 284.166 308.731C284.682 307.663 285.4 306.83 286.319 306.231C287.244 305.626 288.324 305.323 289.558 305.323C290.519 305.323 291.385 305.501 292.156 305.857C292.927 306.213 293.559 306.711 294.051 307.352C294.543 307.992 294.849 308.74 294.968 309.594H292.868C292.708 308.971 292.352 308.42 291.8 307.939C291.254 307.453 290.519 307.209 289.593 307.209C288.775 307.209 288.057 307.423 287.44 307.85C286.829 308.271 286.352 308.867 286.008 309.638C285.669 310.404 285.5 311.302 285.5 312.334C285.5 313.39 285.666 314.31 285.999 315.093C286.337 315.876 286.811 316.484 287.422 316.917C288.039 317.35 288.763 317.566 289.593 317.566C290.139 317.566 290.634 317.471 291.079 317.282C291.524 317.092 291.901 316.819 292.209 316.463C292.518 316.107 292.737 315.68 292.868 315.182H294.968C294.849 315.988 294.555 316.715 294.087 317.362C293.624 318.002 293.01 318.512 292.245 318.892C291.486 319.266 290.602 319.453 289.593 319.453ZM302.059 319.488C301.193 319.488 300.407 319.325 299.701 318.999C298.995 318.667 298.435 318.189 298.019 317.566C297.604 316.938 297.397 316.178 297.397 315.289C297.397 314.506 297.551 313.871 297.859 313.384C298.168 312.892 298.58 312.507 299.096 312.228C299.612 311.949 300.182 311.741 300.804 311.605C301.433 311.463 302.065 311.35 302.7 311.267C303.53 311.16 304.203 311.08 304.719 311.027C305.241 310.967 305.621 310.869 305.858 310.733C306.101 310.596 306.223 310.359 306.223 310.021V309.95C306.223 309.072 305.983 308.39 305.502 307.903C305.028 307.417 304.307 307.174 303.34 307.174C302.338 307.174 301.552 307.393 300.982 307.832C300.413 308.271 300.012 308.74 299.781 309.238L297.788 308.526C298.144 307.696 298.619 307.049 299.212 306.587C299.811 306.118 300.463 305.792 301.169 305.608C301.881 305.418 302.581 305.323 303.269 305.323C303.708 305.323 304.212 305.377 304.782 305.483C305.357 305.584 305.912 305.795 306.446 306.115C306.985 306.435 307.433 306.919 307.789 307.565C308.145 308.212 308.323 309.078 308.323 310.163V319.168H306.223V317.317H306.116C305.974 317.614 305.737 317.931 305.404 318.269C305.072 318.607 304.63 318.895 304.079 319.132C303.527 319.37 302.854 319.488 302.059 319.488ZM302.379 317.602C303.21 317.602 303.91 317.439 304.479 317.113C305.055 316.786 305.488 316.365 305.778 315.849C306.075 315.333 306.223 314.79 306.223 314.221V312.299C306.134 312.406 305.938 312.504 305.636 312.593C305.339 312.676 304.995 312.75 304.604 312.815C304.218 312.874 303.841 312.928 303.474 312.975C303.112 313.017 302.818 313.052 302.593 313.082C302.047 313.153 301.537 313.269 301.062 313.429C300.594 313.583 300.214 313.817 299.924 314.132C299.639 314.44 299.496 314.861 299.496 315.395C299.496 316.125 299.766 316.677 300.306 317.05C300.852 317.418 301.543 317.602 302.379 317.602ZM314.255 316.072L320.84 305.501H323.26V319.168H321.16V308.597L314.611 319.168H312.156V305.501H314.255V316.072ZM319.452 300.945H321.409C321.409 301.906 321.077 302.692 320.413 303.303C319.748 303.914 318.847 304.22 317.708 304.22C316.587 304.22 315.694 303.914 315.03 303.303C314.371 302.692 314.042 301.906 314.042 300.945H315.999C315.999 301.408 316.127 301.814 316.382 302.164C316.643 302.514 317.085 302.689 317.708 302.689C318.331 302.689 318.775 302.514 319.042 302.164C319.315 301.814 319.452 301.408 319.452 300.945ZM325.246 307.459V305.501H336.351V307.459H331.866V319.168H329.766V307.459H325.246ZM344.434 319.453C343.117 319.453 341.981 319.162 341.026 318.581C340.077 317.993 339.345 317.175 338.829 316.125C338.318 315.069 338.063 313.841 338.063 312.441C338.063 311.041 338.318 309.808 338.829 308.74C339.345 307.666 340.062 306.83 340.982 306.231C341.907 305.626 342.987 305.323 344.221 305.323C344.932 305.323 345.635 305.442 346.329 305.679C347.023 305.916 347.655 306.302 348.225 306.836C348.794 307.364 349.248 308.064 349.586 308.936C349.924 309.808 350.093 310.881 350.093 312.157V313.046H339.558V311.231H347.958C347.958 310.46 347.803 309.772 347.495 309.167C347.192 308.562 346.759 308.084 346.196 307.734C345.638 307.384 344.98 307.209 344.221 307.209C343.384 307.209 342.661 307.417 342.05 307.832C341.445 308.242 340.979 308.775 340.653 309.434C340.326 310.092 340.163 310.798 340.163 311.551V312.762C340.163 313.794 340.341 314.669 340.697 315.386C341.059 316.098 341.56 316.641 342.201 317.015C342.841 317.382 343.586 317.566 344.434 317.566C344.986 317.566 345.484 317.489 345.929 317.335C346.38 317.175 346.768 316.938 347.095 316.623C347.421 316.303 347.673 315.905 347.851 315.431L349.88 316C349.666 316.688 349.307 317.293 348.803 317.815C348.299 318.332 347.676 318.735 346.934 319.026C346.193 319.31 345.36 319.453 344.434 319.453Z" fill="white"/>
        <path d="M50.7133 92.4749V53.2265H67.7311C70.7207 53.2265 73.2312 53.629 75.2627 54.4339C77.3068 55.2388 78.8464 56.3759 79.8812 57.8451C80.9289 59.3144 81.4527 61.0456 81.4527 63.0386C81.4527 64.4823 81.1333 65.7983 80.4945 66.9865C79.8685 68.1747 78.9869 69.1712 77.8498 69.9761C76.7128 70.7682 75.384 71.3176 73.8637 71.6242V72.0075C75.5501 72.0714 77.0833 72.4994 78.4631 73.2915C79.8429 74.0708 80.9417 75.1504 81.7593 76.5303C82.577 77.8973 82.9858 79.5071 82.9858 81.3596C82.9858 83.506 82.4237 85.4161 81.2994 87.0898C80.1879 88.7634 78.6036 90.0794 76.5467 91.0376C74.4897 91.9958 72.0367 92.4749 69.1876 92.4749H50.7133ZM61.3686 83.966H66.3513C68.14 83.966 69.4814 83.6338 70.3758 82.9694C71.2701 82.2923 71.7173 81.2958 71.7173 79.9798C71.7173 79.0599 71.5065 78.2806 71.0849 77.6418C70.6632 77.003 70.0628 76.5175 69.2834 76.1853C68.5168 75.8531 67.5906 75.687 66.5046 75.687H61.3686V83.966ZM61.3686 69.0945H65.738C66.6707 69.0945 67.4948 68.9476 68.2102 68.6538C68.9257 68.3599 69.4814 67.9383 69.8775 67.3889C70.2863 66.8268 70.4908 66.1432 70.4908 65.3383C70.4908 64.1246 70.0564 63.1983 69.1876 62.5595C68.3188 61.9079 67.2201 61.5822 65.8913 61.5822H61.3686V69.0945ZM92.8171 71.011H101.863C106.066 71.011 109.375 71.9819 111.79 73.9239C114.204 75.8531 115.418 78.5106 115.431 81.8962C115.418 84.081 114.862 85.9655 113.764 87.5497C112.678 89.1339 111.119 90.3541 109.088 91.2101C107.069 92.0533 104.661 92.4749 101.863 92.4749H86.9145V63.0386H96.8799V84.5792H101.863C102.949 84.5792 103.843 84.3237 104.546 83.8127C105.248 83.2888 105.606 82.6245 105.619 81.8196C105.606 80.9636 105.248 80.2673 104.546 79.7307C103.843 79.1813 102.949 78.9066 101.863 78.9066H92.8171V71.011ZM117.577 92.4749V63.0386H128.156V92.4749H117.577ZM154.967 63.0386V70.9343H143.698V92.4749H133.503V63.0386H154.967ZM172.296 93.0115C169.102 93.0115 166.368 92.3791 164.094 91.1142C161.82 89.8366 160.076 88.0607 158.862 85.7866C157.648 83.4997 157.041 80.8486 157.041 77.8334C157.041 74.8183 157.648 72.1736 158.862 69.8994C160.076 67.6125 161.82 65.8366 164.094 64.5718C166.368 63.2942 169.102 62.6554 172.296 62.6554C175.49 62.6554 178.224 63.2942 180.498 64.5718C182.772 65.8366 184.516 67.6125 185.73 69.8994C186.944 72.1736 187.551 74.8183 187.551 77.8334C187.551 80.8486 186.944 83.4997 185.73 85.7866C184.516 88.0607 182.772 89.8366 180.498 91.1142C178.224 92.3791 175.49 93.0115 172.296 93.0115ZM172.373 85.1925C173.267 85.1925 174.04 84.8923 174.691 84.2918C175.343 83.6913 175.848 82.8353 176.205 81.7238C176.563 80.6122 176.742 79.2899 176.742 77.7568C176.742 76.2109 176.563 74.8885 176.205 73.7898C175.848 72.6782 175.343 71.8222 174.691 71.2218C174.04 70.6213 173.267 70.321 172.373 70.321C171.427 70.321 170.616 70.6213 169.939 71.2218C169.262 71.8222 168.744 72.6782 168.386 73.7898C168.029 74.8885 167.85 76.2109 167.85 77.7568C167.85 79.2899 168.029 80.6122 168.386 81.7238C168.744 82.8353 169.262 83.6913 169.939 84.2918C170.616 84.8923 171.427 85.1925 172.373 85.1925ZM190.08 101.214V84.5026H192.227C192.904 84.2343 193.434 83.6019 193.817 82.6053C194.213 81.596 194.514 80.4142 194.718 79.0599C194.935 77.7057 195.089 76.3386 195.178 74.9588C195.28 73.5662 195.37 72.3525 195.446 71.3176L196.06 63.0386H221.203V84.5026H225.803V101.214H215.837V92.4749H200.352V101.214H190.08ZM202.345 84.5026H211.391V70.7043H204.799V71.3176C204.645 74.4989 204.39 77.1499 204.032 79.2707C203.674 81.3788 203.112 83.1228 202.345 84.5026ZM250.74 73.694V81.5896H235.945V73.694H250.74ZM239.701 63.0386V92.4749H229.736V63.0386H239.701ZM256.949 63.0386V92.4749H247.06V63.0386H256.949ZM267.892 71.011H276.937C281.141 71.011 284.45 71.9819 286.865 73.9239C289.279 75.8531 290.493 78.5106 290.506 81.8962C290.493 84.081 289.937 85.9655 288.838 87.5497C287.752 89.1339 286.194 90.3541 284.162 91.2101C282.144 92.0533 279.735 92.4749 276.937 92.4749H261.989V63.0386H271.955V84.5792H276.937C278.023 84.5792 278.918 84.3237 279.62 83.8127C280.323 83.2888 280.681 82.6245 280.694 81.8196C280.681 80.9636 280.323 80.2673 279.62 79.7307C278.918 79.1813 278.023 78.9066 276.937 78.9066H267.892V71.011ZM292.652 92.4749V63.0386H303.231V92.4749H292.652ZM318.543 78.9833L326.745 63.0386H336.711V92.4749H326.745V76.4536L318.543 92.4749H308.578V63.0386H318.543V78.9833ZM326.439 52.46H333.108C333.095 54.9513 332.143 56.9444 330.252 58.4392C328.361 59.9213 325.813 60.6623 322.606 60.6623C319.373 60.6623 316.812 59.9213 314.921 58.4392C313.03 56.9444 312.091 54.9513 312.104 52.46H318.696C318.684 53.2649 318.971 54.0059 319.559 54.683C320.159 55.3474 321.175 55.6796 322.606 55.6796C323.973 55.6796 324.95 55.3538 325.538 54.7022C326.126 54.0506 326.426 53.3032 326.439 52.46ZM367.029 93.0115C363.834 93.0115 361.1 92.3791 358.826 91.1142C356.552 89.8366 354.808 88.0607 353.594 85.7866C352.381 83.4997 351.774 80.8486 351.774 77.8334C351.774 74.8183 352.381 72.1736 353.594 69.8994C354.808 67.6125 356.552 65.8366 358.826 64.5718C361.1 63.2942 363.834 62.6554 367.029 62.6554C369.916 62.6554 372.414 63.1792 374.522 64.2268C376.643 65.2617 378.284 66.7309 379.447 68.6346C380.61 70.5255 381.197 72.7485 381.21 75.3037H371.398C371.257 73.7578 370.81 72.5824 370.056 71.7775C369.315 70.9599 368.357 70.551 367.182 70.551C366.262 70.551 365.457 70.8193 364.767 71.3559C364.077 71.8797 363.541 72.6782 363.157 73.7514C362.774 74.8119 362.582 76.147 362.582 77.7568C362.582 79.3666 362.774 80.7081 363.157 81.7813C363.541 82.8417 364.077 83.6402 364.767 84.1768C365.457 84.7006 366.262 84.9625 367.182 84.9625C367.961 84.9625 368.651 84.7837 369.252 84.4259C369.852 84.0554 370.338 83.5188 370.708 82.8161C371.091 82.1007 371.321 81.2319 371.398 80.2098H381.21C381.172 82.8034 380.578 85.0647 379.428 86.9939C378.278 88.9104 376.649 90.3924 374.541 91.44C372.446 92.4877 369.941 93.0115 367.029 93.0115ZM399.68 93.0115C396.537 93.0115 393.828 92.411 391.554 91.2101C389.293 89.9963 387.549 88.2588 386.322 85.9974C385.108 83.7232 384.502 81.0019 384.502 77.8334C384.502 74.7927 385.115 72.1353 386.341 69.8611C387.568 67.5869 389.299 65.8175 391.535 64.5526C393.771 63.2878 396.409 62.6554 399.45 62.6554C401.673 62.6554 403.685 63.0003 405.486 63.6902C407.288 64.3801 408.827 65.3831 410.105 66.699C411.383 68.0022 412.366 69.5864 413.056 71.4517C413.746 73.3171 414.091 75.4187 414.091 77.7568V80.2098H387.798V74.3839H404.356C404.343 73.5406 404.126 72.7996 403.704 72.1608C403.295 71.5092 402.739 71.0046 402.037 70.6468C401.347 70.2763 400.561 70.0911 399.68 70.0911C398.824 70.0911 398.038 70.2763 397.322 70.6468C396.607 71.0046 396.032 71.5028 395.598 72.1416C395.176 72.7805 394.952 73.5279 394.927 74.3839V80.6697C394.927 81.6152 395.125 82.4584 395.521 83.1994C395.917 83.9404 396.486 84.5217 397.227 84.9434C397.968 85.365 398.862 85.5758 399.91 85.5758C400.638 85.5758 401.302 85.4736 401.903 85.2692C402.516 85.0647 403.04 84.7709 403.474 84.3876C403.909 83.9915 404.228 83.5188 404.432 82.9694H414.091C413.759 85.0136 412.973 86.7895 411.734 88.2971C410.495 89.7919 408.853 90.9545 406.809 91.785C404.777 92.6027 402.401 93.0115 399.68 93.0115ZM417.105 83.5827H427.07C427.07 84.3237 427.389 84.9306 428.028 85.4033C428.68 85.876 429.51 86.1124 430.52 86.1124C431.529 86.1124 432.353 85.8505 432.992 85.3266C433.643 84.79 433.969 84.1065 433.969 83.2761C433.969 82.7522 433.835 82.2923 433.567 81.8962C433.298 81.4874 432.928 81.168 432.455 80.938C431.983 80.7081 431.44 80.5931 430.826 80.5931H427.147V74.3839H430.826C431.733 74.3839 432.468 74.1667 433.03 73.7323C433.605 73.2979 433.893 72.7485 433.893 72.0842C433.893 71.3176 433.611 70.6916 433.049 70.2061C432.487 69.7206 431.772 69.4778 430.903 69.4778C430.034 69.4778 429.319 69.6759 428.757 70.0719C428.194 70.468 427.913 70.9854 427.913 71.6242H417.948C417.948 69.7333 418.51 68.1235 419.634 66.7948C420.759 65.4533 422.266 64.4312 424.157 63.7285C426.048 63.0131 428.143 62.6554 430.443 62.6554C433.075 62.6554 435.336 62.9748 437.227 63.6136C439.118 64.2524 440.568 65.1914 441.577 66.4307C442.587 67.67 443.091 69.1967 443.091 71.011C443.091 72.5058 442.548 73.7898 441.462 74.863C440.376 75.9234 438.773 76.6836 436.652 77.1435V77.4501C437.917 77.514 439.092 77.8143 440.178 78.3509C441.277 78.8875 442.165 79.654 442.842 80.6506C443.519 81.6471 443.858 82.88 443.858 84.3493C443.858 86.189 443.283 87.7541 442.133 89.0445C440.996 90.3349 439.425 91.3187 437.419 91.9958C435.413 92.6729 433.113 93.0115 430.52 93.0115C427.99 93.0115 425.729 92.6729 423.736 91.9958C421.742 91.3059 420.158 90.2646 418.983 88.872C417.807 87.4666 417.181 85.7035 417.105 83.5827ZM462.155 93.0115C458.961 93.0115 456.227 92.3791 453.953 91.1142C451.679 89.8366 449.935 88.0607 448.721 85.7866C447.507 83.4997 446.9 80.8486 446.9 77.8334C446.9 74.8183 447.507 72.1736 448.721 69.8994C449.935 67.6125 451.679 65.8366 453.953 64.5718C456.227 63.2942 458.961 62.6554 462.155 62.6554C465.349 62.6554 468.083 63.2942 470.357 64.5718C472.631 65.8366 474.375 67.6125 475.589 69.8994C476.803 72.1736 477.41 74.8183 477.41 77.8334C477.41 80.8486 476.803 83.4997 475.589 85.7866C474.375 88.0607 472.631 89.8366 470.357 91.1142C468.083 92.3791 465.349 93.0115 462.155 93.0115ZM462.232 85.1925C463.126 85.1925 463.899 84.8923 464.551 84.2918C465.202 83.6913 465.707 82.8353 466.065 81.7238C466.422 80.6122 466.601 79.2899 466.601 77.7568C466.601 76.2109 466.422 74.8885 466.065 73.7898C465.707 72.6782 465.202 71.8222 464.551 71.2218C463.899 70.6213 463.126 70.321 462.232 70.321C461.286 70.321 460.475 70.6213 459.798 71.2218C459.121 71.8222 458.603 72.6782 458.246 73.7898C457.888 74.8885 457.709 76.2109 457.709 77.7568C457.709 79.2899 457.888 80.6122 458.246 81.7238C458.603 82.8353 459.121 83.6913 459.798 84.2918C460.475 84.8923 461.286 85.1925 462.232 85.1925ZM502.707 73.694V81.5896H487.912V73.694H502.707ZM491.668 63.0386V92.4749H481.703V63.0386H491.668ZM508.916 63.0386V92.4749H499.027V63.0386H508.916ZM545.711 73.694V81.5896H530.916V73.694H545.711ZM534.672 63.0386V92.4749H524.707V63.0386H534.672ZM551.92 63.0386V92.4749H542.032V63.0386H551.92ZM565.163 92.9348C563.285 92.9348 561.624 92.6282 560.18 92.015C558.749 91.3889 557.625 90.4435 556.807 89.1787C555.99 87.9138 555.581 86.304 555.581 84.3493C555.581 82.7395 555.855 81.366 556.405 80.229C556.954 79.0791 557.721 78.1401 558.704 77.4118C559.688 76.6836 560.832 76.1278 562.135 75.7445C563.451 75.3612 564.869 75.1121 566.389 74.9971C568.037 74.8694 569.36 74.716 570.356 74.5372C571.366 74.3455 572.094 74.0836 572.541 73.7514C572.988 73.4065 573.212 72.9529 573.212 72.3908V72.3141C573.212 71.5476 572.918 70.9599 572.33 70.551C571.743 70.1422 570.989 69.9378 570.069 69.9378C569.06 69.9378 568.235 70.1613 567.597 70.6085C566.971 71.0429 566.594 71.7136 566.466 72.6208H556.731C556.858 70.8321 557.427 69.184 558.436 67.6764C559.458 66.156 560.947 64.9423 562.901 64.0352C564.856 63.1153 567.296 62.6554 570.222 62.6554C572.33 62.6554 574.221 62.9045 575.895 63.4028C577.568 63.8883 578.993 64.5718 580.168 65.4533C581.344 66.3221 582.238 67.3442 582.851 68.5196C583.477 69.6822 583.79 70.9471 583.79 72.3141V92.4749H573.902V88.3354H573.672C573.084 89.4342 572.369 90.3221 571.525 90.9993C570.695 91.6764 569.743 92.1683 568.67 92.4749C567.609 92.7815 566.44 92.9348 565.163 92.9348ZM568.612 86.2657C569.417 86.2657 570.171 86.0996 570.874 85.7674C571.589 85.4352 572.171 84.9561 572.618 84.3301C573.065 83.7041 573.288 82.9439 573.288 82.0496V79.5965C573.007 79.7115 572.707 79.8201 572.388 79.9223C572.081 80.0245 571.749 80.1204 571.391 80.2098C571.046 80.2992 570.676 80.3823 570.28 80.4589C569.896 80.5356 569.494 80.6059 569.072 80.6697C568.255 80.7975 567.584 81.0083 567.06 81.3022C566.549 81.5832 566.166 81.9346 565.91 82.3562C565.667 82.765 565.546 83.225 565.546 83.736C565.546 84.5537 565.834 85.1797 566.408 85.6141C566.983 86.0485 567.718 86.2657 568.612 86.2657ZM71.8706 129.492C71.7684 128.214 71.2893 127.218 70.4333 126.502C69.59 125.787 68.306 125.429 66.5813 125.429C65.4825 125.429 64.5818 125.563 63.8791 125.831C63.1892 126.087 62.6781 126.438 62.346 126.885C62.0138 127.332 61.8413 127.844 61.8285 128.418C61.803 128.891 61.886 129.319 62.0777 129.702C62.2821 130.073 62.6015 130.412 63.0359 130.718C63.4703 131.012 64.026 131.28 64.7032 131.523C65.3803 131.766 66.1852 131.983 67.1179 132.175L70.3374 132.865C72.5094 133.325 74.3683 133.931 75.9142 134.685C77.4602 135.439 78.725 136.327 79.7088 137.349C80.6925 138.358 81.4144 139.495 81.8743 140.76C82.347 142.025 82.5898 143.405 82.6026 144.9C82.5898 147.48 81.9446 149.665 80.667 151.454C79.3894 153.243 77.5624 154.603 75.186 155.536C72.8224 156.469 69.9797 156.935 66.6579 156.935C63.2467 156.935 60.2698 156.43 57.7274 155.421C55.1977 154.412 53.2302 152.859 51.8248 150.764C50.4322 148.656 49.7295 145.96 49.7167 142.677H59.8354C59.8993 143.878 60.1996 144.887 60.7362 145.705C61.2728 146.522 62.0266 147.142 62.9975 147.564C63.9813 147.985 65.1503 148.196 66.5046 148.196C67.6417 148.196 68.5935 148.055 69.3601 147.774C70.1266 147.493 70.708 147.104 71.104 146.605C71.5001 146.107 71.7045 145.539 71.7173 144.9C71.7045 144.299 71.5065 143.775 71.1232 143.328C70.7527 142.868 70.1394 142.459 69.2834 142.102C68.4274 141.731 67.2712 141.386 65.8147 141.067L61.9052 140.224C58.4301 139.47 55.6896 138.211 53.6837 136.448C51.6906 134.672 50.7005 132.251 50.7133 129.185C50.7005 126.694 51.3649 124.515 52.7064 122.65C54.0606 120.772 55.9323 119.309 58.3215 118.261C60.7234 117.214 63.4767 116.69 66.5813 116.69C69.7497 116.69 72.4902 117.22 74.8027 118.281C77.1152 119.341 78.8975 120.836 80.1495 122.765C81.4144 124.681 82.0532 126.924 82.066 129.492H71.8706ZM86.8091 167.514V127.039H97.3111V132.175H97.5411C97.9244 131.178 98.4865 130.265 99.2275 129.434C99.9685 128.591 100.888 127.92 101.987 127.422C103.086 126.911 104.364 126.655 105.82 126.655C107.762 126.655 109.608 127.173 111.358 128.208C113.122 129.243 114.553 130.871 115.651 133.095C116.763 135.318 117.319 138.205 117.319 141.757C117.319 145.155 116.788 147.972 115.728 150.208C114.68 152.444 113.275 154.111 111.512 155.21C109.761 156.309 107.839 156.858 105.743 156.858C104.364 156.858 103.131 156.635 102.045 156.187C100.971 155.727 100.052 155.108 99.285 154.329C98.5312 153.536 97.9499 152.642 97.5411 151.646H97.3878V167.514H86.8091ZM97.1578 141.757C97.1578 143.188 97.343 144.427 97.7136 145.475C98.0968 146.51 98.6334 147.314 99.3234 147.889C100.026 148.451 100.863 148.733 101.834 148.733C102.805 148.733 103.629 148.458 104.306 147.908C104.996 147.346 105.52 146.548 105.878 145.513C106.248 144.465 106.433 143.213 106.433 141.757C106.433 140.3 106.248 139.055 105.878 138.02C105.52 136.972 104.996 136.174 104.306 135.624C103.629 135.062 102.805 134.781 101.834 134.781C100.863 134.781 100.026 135.062 99.3234 135.624C98.6334 136.174 98.0968 136.972 97.7136 138.02C97.343 139.055 97.1578 140.3 97.1578 141.757ZM135.932 157.012C132.738 157.012 130.004 156.379 127.73 155.114C125.455 153.837 123.711 152.061 122.498 149.787C121.284 147.5 120.677 144.849 120.677 141.833C120.677 138.818 121.284 136.174 122.498 133.899C123.711 131.613 125.455 129.837 127.73 128.572C130.004 127.294 132.738 126.655 135.932 126.655C139.126 126.655 141.86 127.294 144.134 128.572C146.408 129.837 148.152 131.613 149.366 133.899C150.58 136.174 151.187 138.818 151.187 141.833C151.187 144.849 150.58 147.5 149.366 149.787C148.152 152.061 146.408 153.837 144.134 155.114C141.86 156.379 139.126 157.012 135.932 157.012ZM136.008 149.192C136.903 149.192 137.676 148.892 138.327 148.292C138.979 147.691 139.484 146.835 139.841 145.724C140.199 144.612 140.378 143.29 140.378 141.757C140.378 140.211 140.199 138.889 139.841 137.79C139.484 136.678 138.979 135.822 138.327 135.222C137.676 134.621 136.903 134.321 136.008 134.321C135.063 134.321 134.252 134.621 133.575 135.222C132.897 135.822 132.38 136.678 132.022 137.79C131.665 138.889 131.486 140.211 131.486 141.757C131.486 143.29 131.665 144.612 132.022 145.724C132.38 146.835 132.897 147.691 133.575 148.292C134.252 148.892 135.063 149.192 136.008 149.192ZM155.479 156.475V127.039H165.751V132.635H166.058C166.595 130.565 167.444 129.051 168.607 128.093C169.782 127.134 171.156 126.655 172.727 126.655C173.187 126.655 173.641 126.694 174.088 126.77C174.548 126.834 174.989 126.93 175.41 127.058V136.084C174.886 135.905 174.241 135.771 173.475 135.682C172.708 135.592 172.05 135.548 171.501 135.548C170.466 135.548 169.533 135.784 168.703 136.257C167.885 136.717 167.24 137.368 166.767 138.211C166.294 139.042 166.058 140.019 166.058 141.144V156.475H155.479ZM197.645 127.039V134.704H178.251V127.039H197.645ZM182.007 119.986H192.586V147.008C192.586 147.417 192.656 147.762 192.797 148.043C192.937 148.311 193.155 148.515 193.448 148.656C193.742 148.784 194.119 148.848 194.579 148.848C194.899 148.848 195.269 148.809 195.691 148.733C196.125 148.656 196.444 148.592 196.649 148.541L198.182 155.977C197.709 156.117 197.032 156.29 196.151 156.494C195.282 156.698 194.247 156.833 193.046 156.897C190.619 157.024 188.581 156.775 186.933 156.149C185.285 155.51 184.045 154.507 183.215 153.14C182.384 151.773 181.982 150.061 182.007 148.004V119.986ZM202.441 117.227H215.703L224.825 139.457H225.285L234.407 117.227H247.669V156.475H237.244V133.784H236.937L228.198 156.168H221.912L213.173 133.631H212.867V156.475H202.441V117.227ZM261.074 156.935C259.196 156.935 257.535 156.628 256.092 156.015C254.661 155.389 253.536 154.443 252.719 153.179C251.901 151.914 251.492 150.304 251.492 148.349C251.492 146.739 251.767 145.366 252.316 144.229C252.866 143.079 253.632 142.14 254.616 141.412C255.6 140.684 256.743 140.128 258.046 139.745C259.362 139.361 260.78 139.112 262.301 138.997C263.949 138.869 265.271 138.716 266.268 138.537C267.277 138.346 268.005 138.084 268.453 137.751C268.9 137.406 269.123 136.953 269.123 136.391V136.314C269.123 135.548 268.829 134.96 268.242 134.551C267.654 134.142 266.9 133.938 265.98 133.938C264.971 133.938 264.147 134.161 263.508 134.609C262.882 135.043 262.505 135.714 262.377 136.621H252.642C252.77 134.832 253.338 133.184 254.348 131.676C255.37 130.156 256.858 128.942 258.813 128.035C260.768 127.115 263.208 126.655 266.134 126.655C268.242 126.655 270.133 126.904 271.806 127.403C273.48 127.888 274.904 128.572 276.08 129.453C277.255 130.322 278.15 131.344 278.763 132.52C279.389 133.682 279.702 134.947 279.702 136.314V156.475H269.813V152.335H269.583C268.995 153.434 268.28 154.322 267.437 154.999C266.606 155.676 265.655 156.168 264.581 156.475C263.521 156.782 262.352 156.935 261.074 156.935ZM264.524 150.266C265.329 150.266 266.083 150.1 266.785 149.767C267.501 149.435 268.082 148.956 268.529 148.33C268.976 147.704 269.2 146.944 269.2 146.05V143.597C268.919 143.712 268.619 143.82 268.299 143.922C267.993 144.025 267.66 144.12 267.303 144.21C266.958 144.299 266.587 144.382 266.191 144.459C265.808 144.536 265.405 144.606 264.984 144.67C264.166 144.797 263.495 145.008 262.972 145.302C262.46 145.583 262.077 145.935 261.822 146.356C261.579 146.765 261.458 147.225 261.458 147.736C261.458 148.554 261.745 149.18 262.32 149.614C262.895 150.048 263.63 150.266 264.524 150.266ZM311.663 136.621H301.928C301.877 136.02 301.666 135.503 301.295 135.068C300.925 134.634 300.446 134.302 299.858 134.072C299.283 133.829 298.644 133.708 297.941 133.708C297.034 133.708 296.255 133.874 295.603 134.206C294.952 134.538 294.632 135.011 294.645 135.624C294.632 136.059 294.818 136.461 295.201 136.832C295.597 137.202 296.357 137.49 297.482 137.694L303.461 138.767C306.476 139.317 308.718 140.243 310.187 141.546C311.669 142.836 312.417 144.568 312.43 146.739C312.417 148.835 311.791 150.655 310.552 152.201C309.325 153.734 307.645 154.923 305.511 155.766C303.391 156.596 300.969 157.012 298.248 157.012C293.751 157.012 290.231 156.092 287.689 154.252C285.159 152.412 283.747 149.985 283.453 146.969H293.955C294.096 147.902 294.556 148.624 295.335 149.135C296.127 149.633 297.124 149.882 298.325 149.882C299.296 149.882 300.094 149.716 300.72 149.384C301.359 149.052 301.685 148.579 301.698 147.966C301.685 147.404 301.404 146.957 300.854 146.624C300.318 146.292 299.475 146.024 298.325 145.82L293.112 144.9C290.11 144.376 287.861 143.379 286.366 141.91C284.871 140.441 284.13 138.55 284.143 136.237C284.13 134.193 284.667 132.462 285.753 131.044C286.852 129.613 288.417 128.527 290.448 127.786C292.492 127.032 294.914 126.655 297.712 126.655C301.966 126.655 305.32 127.537 307.773 129.3C310.239 131.063 311.535 133.503 311.663 136.621ZM334.037 127.039V134.704H314.643V127.039H334.037ZM318.399 119.986H328.978V147.008C328.978 147.417 329.048 147.762 329.189 148.043C329.329 148.311 329.547 148.515 329.84 148.656C330.134 148.784 330.511 148.848 330.971 148.848C331.29 148.848 331.661 148.809 332.083 148.733C332.517 148.656 332.836 148.592 333.041 148.541L334.574 155.977C334.101 156.117 333.424 156.29 332.543 156.494C331.674 156.698 330.639 156.833 329.438 156.897C327.01 157.024 324.973 156.775 323.325 156.149C321.676 155.51 320.437 154.507 319.607 153.14C318.776 151.773 318.374 150.061 318.399 148.004V119.986ZM352.143 157.012C349 157.012 346.291 156.411 344.017 155.21C341.756 153.996 340.012 152.259 338.785 149.997C337.572 147.723 336.965 145.002 336.965 141.833C336.965 138.793 337.578 136.135 338.804 133.861C340.031 131.587 341.762 129.817 343.998 128.553C346.234 127.288 348.872 126.655 351.913 126.655C354.136 126.655 356.148 127 357.949 127.69C359.751 128.38 361.29 129.383 362.568 130.699C363.846 132.002 364.829 133.586 365.519 135.452C366.209 137.317 366.554 139.419 366.554 141.757V144.21H340.261V138.384H356.819C356.806 137.541 356.589 136.8 356.167 136.161C355.758 135.509 355.203 135.005 354.5 134.647C353.81 134.276 353.024 134.091 352.143 134.091C351.287 134.091 350.501 134.276 349.786 134.647C349.07 135.005 348.495 135.503 348.061 136.142C347.639 136.78 347.416 137.528 347.39 138.384V144.67C347.39 145.615 347.588 146.458 347.984 147.199C348.38 147.94 348.949 148.522 349.69 148.943C350.431 149.365 351.325 149.576 352.373 149.576C353.101 149.576 353.765 149.474 354.366 149.269C354.979 149.065 355.503 148.771 355.937 148.388C356.372 147.992 356.691 147.519 356.895 146.969H366.554C366.222 149.014 365.436 150.79 364.197 152.297C362.958 153.792 361.316 154.955 359.272 155.785C357.24 156.603 354.864 157.012 352.143 157.012ZM370.871 156.475V127.039H381.143V132.635H381.45C381.986 130.565 382.836 129.051 383.998 128.093C385.174 127.134 386.547 126.655 388.119 126.655C388.579 126.655 389.032 126.694 389.479 126.77C389.939 126.834 390.38 126.93 390.802 127.058V136.084C390.278 135.905 389.633 135.771 388.866 135.682C388.1 135.592 387.442 135.548 386.892 135.548C385.857 135.548 384.925 135.784 384.094 136.257C383.277 136.717 382.631 137.368 382.159 138.211C381.686 139.042 381.45 140.019 381.45 141.144V156.475H370.871Z" fill="white"/>
    </g>
    <defs>
        <clipPath id="clip0_0_5176">
            <rect width="690" height="407" rx="19.2737" fill="white"/>
        </clipPath>
    </defs>
</svg>
