<svg xmlns="http://www.w3.org/2000/svg" xmlns:xlink="http://www.w3.org/1999/xlink" width="38" height="26"><defs><path id="a" d="M0 25.634h37.914V.074H0z"/></defs><g fill="none" fill-rule="evenodd"><path fill="none" d="M0-4h38v34H0z"/><path fill="#FFFFFF" d="M12.61 16.892l-2.961-5.133-5.602 3.237 1.086 1.896zM22.62.129l-5.602 3.216 7.796 13.547h7.498zm-6.41 5.879l-5.603 3.238 4.434 7.646h-.003v1.597h1.597v-1.597h5.858z"/><g transform="translate(0 .055)"><path fill="#FFFFFF" d="M20.661 24.122c-.98 0-1.832-.83-1.832-1.832 0-1.001.852-1.853 1.832-1.853 1.022 0 1.874.852 1.874 1.853s-.852 1.832-1.874 1.832zm1.874-4.58c-.553-.383-1.192-.575-1.917-.575-1.831 0-3.343 1.47-3.343 3.323a3.363 3.363 0 003.343 3.344 3.39 3.39 0 001.917-.575v.426h1.576v-8.648h-1.576v2.705zm5.517 4.58c-1.001 0-1.853-.83-1.853-1.832 0-1.001.852-1.853 1.853-1.853s1.832.852 1.832 1.853a1.846 1.846 0 01-1.832 1.832zm1.832-4.58c-.532-.383-1.193-.575-1.896-.575-1.832 0-3.344 1.47-3.344 3.323a3.364 3.364 0 005.24 2.769v.426h1.598V19.03h-1.598v.511zM10.8 24.122c-1.024 0-1.876-.83-1.876-1.832 0-1.001.852-1.853 1.875-1.853 1.001 0 1.853.852 1.853 1.853s-.852 1.832-1.853 1.832zm1.852-4.58a3.267 3.267 0 00-1.895-.575c-1.854 0-3.366 1.47-3.366 3.323 0 1.832 1.512 3.344 3.366 3.344a3.43 3.43 0 001.895-.575v.426h1.598v-8.648h-1.598v2.705z"/><mask id="b" fill="#fff"><use xlink:href="#a"/></mask><path fill="#FFFFFF" d="M15.038 25.485h1.597V19.03h-1.597zM3.387 24.122c-1.002 0-1.854-.83-1.854-1.832 0-1.001.852-1.853 1.854-1.853 1.022 0 1.874.852 1.874 1.853s-.852 1.832-1.874 1.832zm1.874-4.58a3.334 3.334 0 00-1.917-.575C1.512 18.967 0 20.437 0 22.29a3.363 3.363 0 003.344 3.344 3.39 3.39 0 001.917-.575v.426h1.576V19.03H5.261v.511zm31.013 2.13c-1.044-.277-2.386-.234-2.386-.895.043-.447.469-.575 1.108-.575.958 0 1.022.533 1.044.874h1.618c-.106-1.257-1.129-2.109-2.747-2.109-1.662 0-2.663.916-2.663 2.066 0 .682.362 1.278.895 1.555.426.213 1 .34 1.682.447.682.107 1.321.15 1.364.66 0 .32-.341.746-1.065.746-1.087-.021-1.342-.618-1.342-1.022h-1.683c.064 1.3 1.129 2.215 2.918 2.215 1.597 0 2.897-.618 2.897-2.215 0-.874-.639-1.491-1.64-1.747" mask="url(#b)"/></g></g></svg>
