<svg xmlns="http://www.w3.org/2000/svg" xmlns:xlink="http://www.w3.org/1999/xlink" width="89" height="16"><defs><path id="a" d="M0 .267h18.282v15.039H0z"/></defs><g fill="none" fill-rule="evenodd"><path d="M0-9h89v34H0z"/><mask id="b" fill="#fff"><use xlink:href="#a"/></mask><path fill="#FFFFFF" d="M8.29 6.374l.317.756a.372.372 0 01-.034.331l-2.245 3.76s4.178-2.468 4.84-2.861c.566-.336.667-1.039.34-1.532L7.493.775c-.135-.203.011-.508.286-.508h.836c.23 0 .526.035.825.278 2.238 1.806 7.09 5.721 8.456 6.827.39.314.529.88.21 1.405-.284.468-.787.93-1.803 1.307-1.089.404-11.564 4.284-13.294 4.938a4.422 4.422 0 01-1.595.284H.301a.3.3 0 01-.226-.498c.453-.5 7.506-8.187 7.799-8.506a.248.248 0 01.416.072" mask="url(#b)"/><path fill="#FFFFFF" d="M49.92 8.595c-.143-.164-.394-.253-.69-.253h-5.78l.629-1.233h6.996c.539 0 1.11-.294 1.303-.661l.272-.532c.11-.206.088-.4-.055-.56-.146-.16-.397-.254-.7-.254h-9.516c-.54 0-1.11.29-1.298.655l-3.595 7.024c-.11.21-.094.418.051.57.147.159.395.254.693.254h9.458c.543 0 1.11-.292 1.303-.663l.287-.545c.1-.198.074-.4-.06-.55-.138-.158-.394-.244-.685-.244H41.78l.647-1.262h5.983c.53 0 1.117-.295 1.302-.658l.277-.526c.1-.205.077-.409-.068-.562m39.053-3.229c.092.188-.062.417-.418.626l-5.742 3.315 2.297 3.387c.12.177.107.362-.035.525-.151.177-.447.292-.79.292l-1.75.094c-.683 0-1.157-.209-1.439-.634l-1.278-1.916-3.255 1.88c-.424.247-1.082.576-1.926.576H72.62c-.432 0-.563-.181-.596-.258-.095-.192.027-.461.385-.67l6.065-3.501-2.156-3.161a.402.402 0 01.03-.519c.153-.185.455-.3.8-.3h1.814c.684 0 1.14.23 1.425.66l1.078 1.59 3.125-1.807c.418-.245 1.166-.443 2.004-.443h1.775c.438 0 .572.18.604.264M74.137 5.36c.143.156.163.357.057.558l-3.615 7.02c-.194.376-.775.667-1.326.667h-1.535c-.304 0-.56-.098-.702-.257a.443.443 0 01-.058-.542L70.56 5.77c.197-.368.764-.667 1.303-.667h1.563c.303 0 .568.095.711.258m-5.109-.01c.153.157.171.37.06.579l-3.687 7c-.206.384-.784.675-1.346.675h-1.528c-.313 0-.562-.087-.717-.249-.146-.16-.166-.361-.056-.575l2.28-4.372-4.834 4.609c-.365.33-1.026.587-1.53.587h-.604c-.578 0-1.038-.31-1.048-.712l-.05-4.484-2.367 4.497c-.203.389-.78.675-1.349.675h-1.527c-.313 0-.562-.086-.711-.247-.147-.155-.17-.367-.058-.574l3.69-6.98c.202-.375.788-.678 1.334-.678h2.785c.293 0 .562.081.753.23.181.141.274.32.266.518l.011 4.205 4.554-4.334c.364-.352 1.006-.62 1.536-.62h3.45c.299 0 .552.096.693.25m-30.946.987c.65.71.62 1.726-.094 3.09-1.496 2.887-4.34 4.177-9.237 4.177h-5.242c-.31 0-.568-.098-.713-.257a.452.452 0 01-.056-.541l2.57-4.982h3.719l-1.883 3.612h2.415c3.096 0 3.995-.617 4.795-2.158.442-.85.51-1.363.233-1.668-.307-.34-1.122-.502-2.556-.502h-.956s-4.845.002-5.002 0c-.313-.004-.737.002-.994-.043-.232-.048-.323-.145-.278-.284.104-.4.516-1.077 1.017-1.43.192-.142.496-.244 1.133-.244.25-.006.495-.006.746-.006h5.251c2.694 0 4.38.406 5.132 1.236"/></g></svg>
