<svg width="62" height="56" viewBox="0 0 62 56" fill="none" xmlns="http://www.w3.org/2000/svg">
<path fill-rule="evenodd" clip-rule="evenodd" d="M23.2477 18C24.7593 18 25.9848 19.2255 25.9848 20.7371V35.2633C25.9848 36.7749 24.7593 38 23.2477 38C21.7361 38 20.5106 36.7749 20.5106 35.2633V20.7371C20.5106 19.2255 21.7361 18 23.2477 18ZM15.0536 25.2633C16.5652 25.2633 17.7903 26.4884 17.7903 28.0004C17.7903 29.5112 16.5652 30.7371 15.0536 30.7371L6.15999 30.7391C5.91336 30.7391 5.71347 30.9386 5.71347 31.1852L5.71388 35.2619C5.71388 36.7731 4.48838 37.9982 2.97677 37.9982C1.46515 37.9982 0.239658 36.7731 0.239658 35.2619V28.0004C0.239658 26.4884 1.46515 25.2633 2.97677 25.2633H15.0536ZM30.6845 18.0001C32.1961 18.0001 33.4216 19.2252 33.4216 20.7372L33.4236 31.3935C33.4236 31.8863 33.823 32.2861 34.3159 32.2861H40.8229C41.1727 32.2861 41.4758 32.085 41.6225 31.7924L48.7026 19.5967C49.2458 18.6477 50.2694 18.0057 51.4417 18.0057C52.6156 18.0057 53.6405 18.6481 54.1829 19.6L61.205 31.6018C61.5556 32.2059 61.7571 32.9083 61.7571 33.6575C61.7571 35.9243 59.9194 37.7619 57.6522 37.7619L50.0708 37.7611C48.56 37.7611 47.3337 36.536 47.3337 35.0244C47.3337 33.5124 48.56 32.2873 50.0708 32.2873H55.2657L51.4482 25.7705L45.2756 36.4046C44.8009 37.2163 43.9199 37.7611 42.9124 37.7611L30.6845 37.7619C29.1729 37.7619 27.9474 36.5364 27.9474 35.0252V20.7372C27.9474 19.2252 29.1729 18.0001 30.6845 18.0001ZM16.4223 18.2478C17.9343 18.2478 19.1594 19.4733 19.1594 20.9853C19.1594 22.4969 17.9343 23.722 16.4223 23.722H2.73711C1.22549 23.722 0 22.4969 0 20.9853C0 19.4733 1.22549 18.2478 2.73711 18.2478H16.4223Z" fill="#FFFFFF"/>
</svg>
