<svg width="26" height="26" viewBox="0 0 26 26" fill="none" xmlns="http://www.w3.org/2000/svg">
<g id="ion:cart">
<path id="Vector" d="M8.9375 22.75C9.83496 22.75 10.5625 22.0225 10.5625 21.125C10.5625 20.2275 9.83496 19.5 8.9375 19.5C8.04004 19.5 7.3125 20.2275 7.3125 21.125C7.3125 22.0225 8.04004 22.75 8.9375 22.75Z" fill="#FEFEFE"/>
<path id="Vector_2" d="M20.3125 22.75C21.21 22.75 21.9375 22.0225 21.9375 21.125C21.9375 20.2275 21.21 19.5 20.3125 19.5C19.415 19.5 18.6875 20.2275 18.6875 21.125C18.6875 22.0225 19.415 22.75 20.3125 22.75Z" fill="#FEFEFE"/>
<path id="Vector_3" d="M23.1969 6.13336C23.0827 5.99374 22.9389 5.88128 22.7759 5.80416C22.6129 5.72704 22.4347 5.68719 22.2544 5.6875H6.7991L6.48781 3.92133C6.45462 3.7332 6.3562 3.56278 6.20984 3.44001C6.06348 3.31723 5.87854 3.24996 5.6875 3.25H2.4375C2.22201 3.25 2.01535 3.3356 1.86298 3.48798C1.7106 3.64035 1.625 3.84701 1.625 4.0625C1.625 4.27799 1.7106 4.48465 1.86298 4.63702C2.01535 4.7894 2.22201 4.875 2.4375 4.875H5.00602L7.32469 18.0162C7.35788 18.2043 7.4563 18.3747 7.60266 18.4975C7.74902 18.6203 7.93396 18.6875 8.125 18.6875H21.125C21.3405 18.6875 21.5471 18.6019 21.6995 18.4495C21.8519 18.2972 21.9375 18.0905 21.9375 17.875C21.9375 17.6595 21.8519 17.4528 21.6995 17.3005C21.5471 17.1481 21.3405 17.0625 21.125 17.0625H8.80648L8.52008 15.4375H20.7919C21.0736 15.4371 21.3466 15.3394 21.5647 15.1609C21.7827 14.9824 21.9323 14.7341 21.9883 14.4579L23.4508 7.14543C23.486 6.96846 23.4815 6.78587 23.4376 6.61085C23.3937 6.43583 23.3115 6.27274 23.1969 6.13336Z" fill="#FEFEFE"/>
</g>
</svg>
