<svg width="120" height="56" viewBox="0 0 120 56" fill="none" xmlns="http://www.w3.org/2000/svg">
<path d="M59.5569 35.3806C57.667 35.1684 56.1771 34.3703 55.2871 32.8549C54.8071 32.0366 54.6971 31.0667 54.9871 29.9656C55.2971 28.7734 55.6471 27.5813 55.9971 26.3791C56.5971 24.3788 58.007 22.9544 59.9369 21.9138C61.7866 20.9136 63.6168 20.4994 65.4464 20.4994C67.5766 20.4994 69.7165 20.4691 71.8261 20.5297C73.886 20.5903 75.5362 21.2874 76.6962 22.6917C77.3458 23.4797 77.6761 24.4596 77.3858 25.6517C77.0059 27.2277 76.5762 28.8139 75.9962 30.3899C75.3762 32.0568 74.006 33.2287 72.3964 34.1076C70.5262 35.128 68.6663 35.522 66.8167 35.522C65.8864 35.5018 60.9867 35.5422 59.5569 35.3806ZM69.0766 32.1679C70.7165 31.7941 72.0164 30.9152 72.4764 29.5109C72.8061 28.4906 73.0963 27.4702 73.366 26.4498C73.6363 25.4598 73.346 24.7324 72.6461 24.2475C72.1061 23.8737 71.4461 23.7221 70.7062 23.712C68.5063 23.7019 66.2864 23.6413 64.0865 23.7221C63.5865 23.7322 63.0466 23.8333 62.5266 23.9747C61.1066 24.3788 60.1569 25.3285 59.7569 26.7024C59.4769 27.6521 59.1969 28.5916 58.9469 29.5412C58.7069 30.4505 58.9269 31.1274 59.5369 31.6123C60.0069 31.9962 60.5869 32.2184 61.2666 32.2386C61.2666 32.2488 68.1263 32.3902 69.0766 32.1679Z" fill="#FFFFFF"/>
<path d="M51.1874 21.4692C51.3574 20.8934 51.7574 20.5701 52.3374 20.5095C53.8973 20.3478 55.0173 21.5905 54.5973 23.116C53.9973 25.3082 53.7773 25.9649 52.6874 29.6827C51.5974 33.4106 50.4075 35.5018 43.2278 35.5018C41.5679 35.5018 39.898 35.5018 38.2381 35.5018C37.3281 35.5018 37.1281 34.9563 37.6981 34.0975C38.3381 33.1277 39.668 32.3397 40.788 32.3094C41.9079 32.2791 43.0079 32.2993 44.1178 32.2993C44.8778 32.2993 45.6377 32.2285 46.4377 31.9255C47.6776 31.4405 48.4376 30.5818 48.8976 29.3796C49.4075 28.0056 50.7975 22.8028 51.1874 21.4692Z" fill="#FFFFFF"/>
<path d="M119.044 20.4893C115.324 20.4893 111.604 20.4893 107.884 20.4893C106.435 20.4893 104.984 20.8227 103.525 21.6713C100.285 23.5706 99.415 27.1873 101.815 28.7937C102.705 29.3897 103.795 29.5918 105.004 29.5817C107.455 29.5817 109.904 29.5817 112.354 29.5817C112.444 29.5817 112.614 29.5817 112.614 29.5817C113.464 29.5817 114.604 29.5817 114.104 30.6929C113.664 31.683 113.054 32.1477 112.094 32.2386C112.094 32.2386 102.125 32.2386 101.835 32.2386C100.825 32.2386 99.8247 32.6327 98.9248 33.3499C98.4951 33.6833 98.1648 34.0773 98.0048 34.5724C97.8648 35.0472 98.0248 35.3806 98.4648 35.4614C98.6248 35.4917 98.7951 35.4917 98.9751 35.4917C101.095 35.4917 103.215 35.4917 105.335 35.4917C107.184 35.4917 109.024 35.5119 110.884 35.4816C111.624 35.4715 112.394 35.421 113.154 35.229C115.174 34.7138 116.864 33.6328 117.724 31.5517C118.524 29.6221 118.334 27.9854 116.764 27.0257C115.864 26.47 114.764 26.2882 113.584 26.2781C111.084 26.268 108.584 26.268 106.084 26.268C105.264 26.268 104.164 26.268 104.655 25.187C105.135 24.106 105.824 23.7019 106.984 23.7019H116.254C117.484 23.7019 118.604 23.1564 119.544 22.0855C120.314 21.2066 120.084 20.4994 119.044 20.4893Z" fill="#FFFFFF"/>
<path d="M98.1951 20.4893C94.4753 20.4893 90.7555 20.4893 87.0357 20.4893C85.5854 20.4893 84.1358 20.8227 82.6759 21.6713C79.436 23.5706 78.5658 27.1873 80.9657 28.7937C81.8559 29.3897 82.9456 29.5918 84.1558 29.5817C86.6054 29.5817 89.0556 29.5817 91.5051 29.5817C91.5954 29.5817 91.7651 29.5817 91.7651 29.5817C92.6154 29.5817 93.7553 29.5817 93.2553 30.6929C92.8154 31.683 92.2051 32.1477 91.2451 32.2386C91.2451 32.2386 81.2759 32.2386 80.9857 32.2386C79.976 32.2386 78.9761 32.6327 78.0658 33.3499C77.6361 33.6833 77.3058 34.0773 77.1458 34.5724C76.9962 35.0472 77.1658 35.3806 77.6058 35.4614C77.7658 35.4917 77.9361 35.4917 78.1161 35.4917C80.236 35.4917 82.3559 35.4917 84.4758 35.4917C86.3254 35.4917 88.1653 35.5119 90.0252 35.4816C90.7652 35.4715 91.5354 35.421 92.2954 35.229C94.3153 34.7138 96.0049 33.6328 96.8649 31.5517C97.6648 29.6221 97.4751 27.9854 95.9049 27.0257C95.005 26.47 93.905 26.2882 92.7251 26.2781C90.2252 26.268 87.7253 26.268 85.2254 26.268C84.4055 26.268 83.3055 26.268 83.7855 25.187C84.2655 24.106 84.9558 23.7019 86.1157 23.7019H95.3849C96.6152 23.7019 97.7351 23.1564 98.6751 22.0855C99.455 21.2066 99.2247 20.4994 98.1951 20.4893Z" fill="#FFFFFF"/>
<path d="M12.9991 25.9245C13.8191 24.8031 13.4891 22.7119 12.9291 21.8431C12.4691 21.1359 12.8191 20.7318 13.5291 20.7318C17.3689 20.7318 25.2385 22.7624 30.8882 27.4904C31.2882 27.8238 31.6482 28.1673 31.9882 28.5209C32.3881 27.1974 32.7381 25.8639 33.0481 24.5505C33.4681 22.8129 32.9781 21.3682 32.0282 20.2165C30.3282 18.1657 27.8984 17.1352 24.8885 17.0544C21.7987 16.9736 18.6588 17.0039 15.539 17.014C12.8691 17.014 10.1792 17.6202 7.47938 19.085C4.65951 20.6105 2.58962 22.6917 1.70966 25.6214C1.18969 27.3692 0.679711 29.1169 0.229736 30.8647C-0.170244 32.37 -0.0402509 33.7136 0.559719 34.8653C5.89945 29.3695 12.9991 25.9245 12.9991 25.9245Z" fill="#FFFFFF"/>
<path d="M2.99938 37.5122C4.10932 38.2093 5.41926 38.6336 6.90917 38.8054C8.99907 39.0377 16.1687 38.9973 17.5586 38.9973C20.2685 38.9973 22.9884 38.4316 25.7282 36.9263C27.8381 35.7746 29.668 34.2693 30.678 32.2184C20.3885 30.4707 11.4689 32.3397 2.99938 37.5122Z" fill="#FFFFFF"/>
</svg>
